<?xml version="1.0"?>

<svg version="1.0" xmlns="http://www.w3.org/2000/svg" viewBox="465.8 32.9 1623.9 1623.9" preserveAspectRatio="xMidYMid meet">

<g transform="translate(0.000000,1728.000000) scale(0.100000,-0.100000)" fill="#000000" stroke="none">
<path d="M9330 14208 c-83 -10 -234 -47 -321 -77 -63 -23 -291 -130 -299 -141&#xA;-3 -4 -36 -28 -74 -54 -38 -26 -95 -70 -128 -99 -89 -79 -255 -271 -332 -387&#xA;-94 -140 -219 -396 -273 -560 -25 -74 -49 -140 -53 -145 -5 -6 -18 -53 -30&#xA;-104 -11 -51 -24 -101 -29 -110 -15 -29 -39 -164 -51 -281 -6 -63 -15 -119&#xA;-19 -125 -11 -13 -19 -97 -31 -335 -14 -275 -20 -372 -25 -405 -4 -23 -35 -59&#xA;-119 -142 -198 -193 -304 -350 -431 -638 -18 -41 -65 -193 -65 -211 0 -7 -4&#xA;-14 -10 -14 -5 0 -13 -17 -18 -37 -18 -71 -62 -318 -73 -401 -5 -46 -14 -107&#xA;-20 -135 -13 -70 -13 -413 1 -540 32 -300 43 -393 64 -507 13 -69 30 -139 38&#xA;-155 9 -17 21 -57 28 -90 27 -135 120 -435 160 -520 9 -21 32 -78 71 -180 22&#xA;-59 157 -338 215 -445 74 -135 139 -249 174 -300 21 -30 63 -93 93 -140 30&#xA;-47 62 -92 72 -100 9 -7 35 -45 58 -84 23 -39 60 -89 82 -111 22 -22 55 -60&#xA;74 -85 56 -73 215 -245 371 -400 130 -130 206 -201 365 -341 28 -24 57 -51 65&#xA;-59 31 -33 253 -193 475 -343 44 -30 121 -77 170 -105 50 -28 105 -60 123 -71&#xA;18 -12 45 -24 60 -28 31 -7 169 -80 177 -93 3 -5 22 -14 43 -20 20 -7 75 -29&#xA;122 -50 47 -21 92 -40 101 -43 15 -5 15 -13 -4 -99 -44 -202 -21 -476 53 -636&#xA;50 -107 140 -233 234 -329 50 -50 96 -97 101 -103 22 -24 186 -124 290 -175&#xA;61 -30 139 -61 175 -70 36 -9 113 -34 172 -55 119 -44 226 -66 403 -80 66 -6&#xA;170 -15 231 -22 72 -7 192 -9 340 -4 126 3 249 6 274 6 65 -1 430 38 530 56&#xA;47 8 119 26 160 39 75 24 153 43 265 65 53 11 236 67 290 90 126 53 195 83&#xA;220 95 17 7 45 18 62 24 18 5 48 21 66 35 17 13 61 38 97 55 93 44 176 91 245&#xA;138 33 22 78 50 100 61 22 11 54 35 70 52 17 18 56 50 89 72 79 55 327 304&#xA;362 364 15 27 44 70 65 95 21 26 47 62 58 80 27 46 80 224 98 329 8 47 19 101&#xA;25 121 18 63 0 212 -46 371 -41 139 -64 191 -128 288 l-61 93 17 31 c9 17 33&#xA;49 52 71 20 21 61 82 91 135 31 52 64 104 73 115 19 21 99 191 125 265 9 25&#xA;25 54 36 67 21 22 26 37 93 283 20 74 45 164 55 200 17 60 36 144 60 265 27&#xA;137 52 478 47 643 -8 251 -25 526 -35 574 -5 24 -12 72 -16 108 -3 36 -11 79&#xA;-16 97 -7 23 -7 38 2 54 14 26 81 109 130 160 19 19 43 53 54 75 11 21 32 57&#xA;47 79 36 55 103 178 135 245 59 126 73 159 73 169 0 5 5 11 11 13 12 4 47 109&#xA;80 243 11 44 27 104 35 132 8 29 17 76 21 105 3 29 12 63 19 75 8 12 19 55 24&#xA;95 6 40 15 89 20 108 34 130 39 719 7 825 -8 28 -18 76 -21 108 -4 32 -13 71&#xA;-20 86 -8 15 -22 65 -30 111 -9 46 -21 88 -26 95 -5 6 -16 43 -24 81 -15 68&#xA;-62 190 -95 244 -5 8 -22 42 -37 75 -63 139 -190 291 -353 422 -150 121 -213&#xA;154 -391 203 -36 10 -82 26 -103 35 -57 24 -251 30 -352 12 -44 -8 -84 -11&#xA;-88 -7 -5 4 -15 33 -23 65 -19 73 -43 128 -121 285 -139 277 -359 466 -674&#xA;581 -233 84 -265 91 -459 92 -136 1 -193 -2 -255 -16 -94 -21 -196 -58 -245&#xA;-89 -62 -37 -162 -88 -176 -88 -8 0 -54 30 -103 68 -149 113 -290 176 -526&#xA;236 -158 40 -408 44 -595 11 -170 -30 -440 -137 -538 -213 -62 -48 -132 -92&#xA;-146 -92 -8 0 -31 24 -53 53 -21 28 -59 79 -84 112 -123 166 -303 316 -509&#xA;427 -212 114 -533 163 -830 126z m405 -312 c296 -58 529 -212 721 -476 65 -90&#xA;149 -243 174 -320 10 -30 33 -91 50 -135 18 -44 38 -102 45 -130 7 -27 25 -93&#xA;39 -145 14 -52 32 -133 40 -180 9 -47 20 -101 25 -120 5 -19 15 -78 21 -130 6&#xA;-52 16 -108 21 -125 11 -35 39 -332 39 -421 l0 -62 -72 -16 c-40 -9 -122 -21&#xA;-183 -26 -388 -33 -611 -37 -895 -20 -397 25 -452 30 -531 45 -46 8 -105 18&#xA;-131 21 -43 5 -48 8 -66 48 -11 23 -25 70 -32 104 -6 33 -19 94 -30 134 -32&#xA;124 -43 266 -35 475 l6 191 -25 41 c-14 22 -39 47 -55 56 -67 34 -154 8 -187&#xA;-57 -43 -83 -37 -632 10 -840 18 -80 21 -110 12 -117 -6 -5 -56 -12 -111 -16&#xA;-154 -10 -359 -52 -509 -104 -102 -36 -98 -41 -90 112 3 72 10 159 16 192 5&#xA;33 15 105 23 160 24 179 77 461 109 575 8 31 36 109 61 175 26 66 57 148 69&#xA;182 13 34 32 75 42 90 11 15 48 82 84 148 61 114 154 242 210 289 13 12 56 51&#xA;95 87 223 211 510 325 830 328 84 0 168 -5 210 -13z m2240 -402 c113 -19 213&#xA;-53 335 -114 74 -37 111 -64 165 -119 156 -158 280 -426 300 -646 4 -38 13&#xA;-93 20 -120 42 -153 46 -927 5 -1115 -5 -25 -14 -92 -20 -149 -5 -57 -14 -120&#xA;-19 -140 -5 -20 -17 -79 -26 -131 -32 -187 -106 -458 -134 -494 -4 -6 -18 -45&#xA;-30 -86 -40 -133 -140 -320 -172 -320 -5 0 -7 5 -3 11 10 17 54 183 70 269 11&#xA;54 14 127 11 265 -3 178 -5 198 -36 310 -43 159 -77 237 -147 341 -33 47 -65&#xA;96 -72 110 -7 13 -34 40 -60 61 -26 20 -65 53 -87 73 -56 52 -137 94 -250 131&#xA;-137 44 -205 53 -411 54 l-182 0 -11 50 c-6 28 -18 127 -26 220 -33 350 -82&#xA;619 -165 895 -67 223 -90 304 -90 321 0 9 24 39 53 65 50 45 178 134 193 134&#xA;4 0 52 22 108 50 187 91 421 117 681 74z m1631 -155 c69 -18 115 -37 189 -76&#xA;203 -109 229 -126 320 -218 102 -102 186 -259 225 -420 48 -203 55 -305 41&#xA;-589 -7 -143 -18 -315 -26 -381 -7 -66 -16 -158 -20 -205 -8 -105 -41 -335&#xA;-54 -375 -5 -16 -22 -84 -36 -150 -23 -102 -62 -260 -131 -530 -8 -33 -22 -70&#xA;-30 -83 -9 -13 -24 -47 -33 -75 -59 -172 -105 -285 -155 -381 -31 -59 -56&#xA;-114 -56 -122 0 -14 -131 -212 -186 -281 -48 -59 -145 -129 -206 -148 -29 -9&#xA;-62 -21 -73 -27 -36 -21 -167 -22 -247 -3 -74 18 -187 69 -240 108 -78 58&#xA;-262 334 -275 412 -4 28 1 40 34 76 92 102 169 246 219 409 80 261 94 310 124&#xA;425 31 120 65 329 94 585 9 74 24 194 33 266 23 184 14 710 -17 946 -29 228&#xA;-79 425 -141 557 -28 58 -51 119 -51 134 -1 32 7 39 110 97 66 37 102 48 242&#xA;74 53 10 274 -6 346 -25z m1419 -994 c115 -25 192 -53 273 -102 79 -48 233&#xA;-185 289 -258 81 -106 179 -317 219 -470 7 -27 26 -102 43 -165 17 -63 37&#xA;-153 45 -200 34 -202 28 -608 -14 -833 -25 -139 -106 -439 -136 -504 -8 -17&#xA;-14 -40 -14 -50 0 -28 -174 -378 -218 -438 -170 -235 -302 -362 -441 -426 -36&#xA;-17 -82 -39 -102 -50 -64 -34 -247 -72 -309 -65 -73 9 -171 35 -190 50 -8 7&#xA;-31 19 -50 26 -94 36 -214 148 -255 237 -15 32 -31 67 -37 77 -22 41 -61 154&#xA;-75 219 -14 64 -14 69 6 100 28 44 87 168 122 255 16 40 42 98 57 130 37 73&#xA;61 139 107 282 20 63 42 129 51 145 24 50 69 213 105 380 122 574 150 758 169&#xA;1142 5 101 11 187 14 191 3 5 6 72 7 150 1 91 6 145 13 150 10 8 63 24 121 36&#xA;44 9 134 5 200 -9z m-3409 -980 c67 -11 114 -27 189 -64 91 -46 106 -57 167&#xA;-130 37 -44 83 -111 102 -148 37 -72 76 -181 76 -210 0 -10 7 -36 15 -58 20&#xA;-55 21 -323 1 -385 -8 -25 -19 -67 -26 -95 -12 -53 -73 -223 -95 -265 -36 -68&#xA;-180 -246 -256 -316 -110 -101 -198 -163 -403 -281 -114 -65 -473 -179 -642&#xA;-203 -286 -40 -743 -9 -919 62 -73 30 -169 63 -250 87 -33 10 -74 25 -91 34&#xA;-55 29 -106 32 -151 8 -64 -32 -83 -63 -83 -134 0 -55 3 -62 35 -93 53 -49&#xA;137 -86 385 -168 361 -119 351 -117 675 -123 306 -6 337 -10 565 -77 189 -56&#xA;310 -107 475 -199 162 -90 167 -93 295 -176 259 -168 566 -489 727 -761 51&#xA;-86 143 -274 143 -292 0 -5 15 -46 34 -91 32 -77 62 -177 73 -239 3 -15 24&#xA;-48 47 -73 40 -43 45 -45 97 -45 46 0 62 5 96 30 65 48 78 127 38 224 -8 19&#xA;-28 87 -45 152 -30 115 -55 178 -107 274 -13 25 -37 72 -52 105 -15 33 -57&#xA;105 -92 160 -36 55 -77 121 -92 147 -15 25 -50 70 -78 100 -28 29 -68 76 -89&#xA;104 -49 65 -292 298 -349 335 -24 16 -74 51 -110 79 -137 106 -443 277 -589&#xA;330 -55 20 -92 44 -81 54 2 2 63 27 134 55 194 77 428 221 582 357 65 58 94&#xA;76 140 89 100 29 203 67 209 76 15 25 38 1 83 -90 87 -172 271 -365 422 -441&#xA;116 -59 319 -110 439 -110 152 0 360 65 458 142 70 56 82 55 103 -10 27 -83&#xA;95 -199 165 -283 42 -49 84 -94 94 -99 11 -6 39 -28 64 -49 98 -85 227 -138&#xA;411 -167 95 -15 125 -16 226 -6 130 13 276 55 398 116 l72 35 8 -22 c25 -67&#xA;44 -716 27 -903 -23 -243 -41 -375 -57 -422 -11 -30 -19 -67 -19 -81 0 -14&#xA;-20 -89 -44 -166 -25 -77 -57 -180 -72 -228 -15 -49 -38 -105 -52 -125 -14&#xA;-20 -47 -84 -75 -142 -27 -58 -71 -136 -99 -173 -27 -38 -63 -92 -79 -119 -55&#xA;-94 -330 -379 -388 -404 -14 -6 -39 -22 -56 -36 -55 -45 -160 -113 -205 -132&#xA;-25 -10 -72 -31 -105 -47 -131 -61 -215 -91 -318 -113 -138 -30 -180 -57 -203&#xA;-131 -19 -61 -14 -91 22 -135 44 -51 78 -63 158 -56 79 7 332 89 491 159 105&#xA;46 366 206 425 261 19 18 56 49 81 70 l47 37 31 -40 c17 -21 38 -58 46 -82 9&#xA;-23 19 -47 24 -53 5 -6 18 -46 30 -89 16 -58 21 -106 21 -197 0 -112 -2 -126&#xA;-39 -233 -58 -171 -59 -172 -234 -378 -67 -79 -243 -232 -357 -309 -134 -91&#xA;-165 -110 -178 -110 -8 0 -42 -17 -76 -38 -69 -43 -205 -114 -251 -130 -16 -5&#xA;-81 -34 -144 -62 -63 -29 -138 -58 -165 -66 -28 -8 -100 -28 -161 -45 -60 -16&#xA;-131 -34 -157 -39 -25 -5 -57 -15 -70 -23 -13 -8 -66 -22 -118 -31 -52 -9&#xA;-126 -22 -165 -30 -183 -36 -876 -52 -1125 -26 -349 36 -692 149 -885 291 -22&#xA;16 -55 40 -74 52 -32 20 -78 73 -166 187 -33 44 -65 130 -100 274 -13 52 -15&#xA;92 -10 165 10 158 11 161 48 161 18 0 73 -9 122 -20 50 -11 126 -27 170 -35&#xA;44 -9 105 -23 137 -31 155 -40 780 -35 833 7 6 4 42 13 79 19 38 6 76 15 85&#xA;19 9 4 45 14 81 20 35 7 89 22 120 33 73 27 377 174 384 187 4 5 20 12 37 16&#xA;18 4 35 16 41 30 5 12 36 37 69 55 32 19 70 46 85 61 101 105 22 286 -117 265&#xA;-35 -5 -67 -23 -138 -76 -51 -39 -98 -70 -105 -70 -14 0 -69 -28 -164 -83 -75&#xA;-44 -270 -115 -362 -133 -36 -7 -84 -19 -108 -28 -77 -29 -374 -48 -557 -36&#xA;-199 13 -311 28 -346 45 -14 8 -50 17 -80 20 -30 4 -80 15 -112 26 -31 10 -63&#xA;19 -71 19 -26 0 -190 51 -261 81 -150 64 -216 94 -380 175 -93 46 -173 84&#xA;-177 84 -4 0 -27 13 -50 29 -24 16 -95 62 -158 102 -63 40 -141 94 -173 121&#xA;-32 26 -64 48 -70 48 -7 0 -46 27 -87 60 -179 145 -258 209 -329 272 -93 81&#xA;-399 394 -454 463 -21 27 -64 77 -94 110 -30 33 -71 83 -91 112 -20 29 -56 78&#xA;-80 110 -41 56 -158 233 -275 415 -31 48 -83 145 -117 215 -33 71 -67 139 -76&#xA;153 -64 106 -189 425 -254 650 -76 264 -126 487 -140 625 -6 61 -16 146 -23&#xA;190 -7 47 -11 188 -11 345 0 232 4 288 27 445 28 195 49 268 146 513 12 29 21&#xA;59 21 68 0 18 61 122 131 224 48 69 98 125 222 250 97 98 266 200 380 229 45&#xA;12 89 26 98 31 9 5 34 12 55 15 22 4 59 13 83 21 63 21 356 29 522 15 75 -6&#xA;199 -22 275 -36 245 -43 797 -64 1185 -46 249 12 329 20 474 46 128 23 431 53&#xA;556 54 59 1 146 -6 195 -14z"></path>
<path d="M8622 12330 c0 -14 2 -19 5 -12 2 6 2 18 0 25 -3 6 -5 1 -5 -13z"></path>
</g>
</svg>